<?xml version="1.0" standalone="no"?>
<!DOCTYPE svg PUBLIC "-//W3C//DTD SVG 20010904//EN"
 "http://www.w3.org/TR/2001/REC-SVG-20010904/DTD/svg10.dtd">
<svg version="1.0" xmlns="http://www.w3.org/2000/svg"
 width="1280.000000pt" height="1100.000000pt" viewBox="0 0 1280.000000 1100.000000"
 preserveAspectRatio="xMidYMid meet">
<g transform="translate(0.000000,1100.000000) scale(0.100000,-0.100000)"
fill="#000000" stroke="none">
<path d="M3368 10979 c-72 -37 -68 18 -68 -938 0 -534 4 -869 10 -885 5 -14
24 -35 42 -46 32 -19 51 -20 491 -20 390 0 462 2 487 15 63 32 60 -10 60 935
0 955 4 897 -68 938 -39 22 -42 22 -478 22 -417 -1 -441 -2 -476 -21z m852
-874 l0 -715 -380 0 -380 0 0 708 c0 390 3 712 7 715 3 4 174 7 380 7 l373 0
0 -715z m-355 -849 c8 -24 6 -31 -13 -47 -31 -24 -66 -12 -70 25 -7 59 63 78
83 22z"/>
<path d="M11838 10790 c-299 -54 -529 -250 -632 -538 -30 -84 -31 -92 -30
-252 0 -154 2 -171 28 -245 126 -365 481 -594 849 -547 318 40 565 241 668
543 60 175 50 403 -25 572 -95 217 -298 388 -531 451 -70 19 -260 29 -327 16z
m297 -115 c82 -21 209 -85 272 -137 268 -223 331 -608 147 -905 -61 -99 -172
-199 -276 -251 -112 -56 -191 -75 -313 -75 -121 0 -200 18 -315 75 -68 33
-102 58 -171 127 -93 93 -141 169 -180 286 -21 60 -24 89 -24 205 0 115 3 145
23 205 120 359 480 561 837 470z"/>
<path d="M11931 10583 c-33 -40 -7 -93 44 -93 51 0 74 75 33 104 -32 23 -54
20 -77 -11z"/>
<path d="M11947 10393 c-4 -3 -7 -84 -7 -179 0 -101 -4 -175 -10 -179 -5 -3
-62 17 -126 45 -91 40 -119 48 -126 38 -10 -16 -22 -58 -17 -62 2 -2 55 -25
117 -52 89 -38 117 -55 128 -77 31 -58 110 -56 135 5 10 25 9 35 -4 64 -14 28
-17 68 -17 219 l0 185 -33 0 c-19 0 -37 -3 -40 -7z"/>
<path d="M11387 10018 c-9 -7 -19 -25 -22 -40 -13 -53 61 -91 98 -50 48 53
-19 133 -76 90z"/>
<path d="M12470 10010 c-11 -11 -20 -29 -20 -40 0 -27 35 -60 63 -60 53 0 77
75 35 104 -30 21 -54 20 -78 -4z"/>
<path d="M11940 9495 c-7 -8 -12 -26 -12 -40 0 -36 20 -55 56 -55 40 0 56 16
56 55 0 17 -5 36 -12 43 -17 17 -73 15 -88 -3z"/>
<path d="M116 10674 c-14 -14 -16 -77 -16 -552 0 -321 4 -543 10 -552 8 -13
61 -16 342 -20 l333 -5 0 -65 0 -65 -274 -3 c-182 -1 -279 -6 -288 -13 -15
-13 -18 -126 -3 -149 8 -13 96 -15 675 -18 366 -1 680 1 698 6 32 8 32 8 35
79 2 50 -1 73 -11 81 -9 8 -103 13 -298 14 l-284 3 0 65 0 65 314 3 c212 1
319 6 328 13 18 16 20 1098 1 1117 -9 9 -196 12 -779 12 -684 0 -769 -2 -783
-16z m1472 -546 l-3 -413 -684 -3 c-497 -1 -688 1 -697 9 -11 9 -14 86 -14
409 0 218 3 400 7 403 3 4 318 7 700 7 l693 0 -2 -412z m-651 -502 c-8 -20
-43 -21 -51 -1 -3 8 2 22 11 30 14 15 18 15 31 1 8 -8 12 -22 9 -30z"/>
<path d="M8533 10660 c-17 -10 -37 -28 -42 -39 -8 -13 -11 -216 -11 -623 0
-662 -3 -630 60 -663 44 -23 1376 -22 1420 0 61 32 60 16 60 672 0 657 3 625
-60 658 -25 13 -126 15 -712 15 -659 0 -684 -1 -715 -20z m1397 -70 c20 -20
20 -31 18 -482 -2 -331 -6 -462 -14 -465 -6 -2 -42 49 -79 113 -118 203 -177
246 -262 194 -42 -25 -71 -73 -138 -223 -30 -67 -60 -123 -67 -124 -7 -1 -76
82 -153 184 -177 236 -224 287 -280 309 -38 14 -49 15 -75 4 -49 -20 -77 -63
-181 -275 -133 -270 -128 -262 -140 -244 -5 8 -9 223 -9 502 0 474 1 488 20
507 20 20 33 20 680 20 648 0 660 0 680 -20z"/>
<path d="M9611 10483 c-48 -24 -73 -68 -68 -121 5 -50 27 -78 82 -103 51 -24
99 -23 152 0 52 24 78 63 78 117 0 46 -26 84 -77 110 -36 19 -125 17 -167 -3z"/>
<path d="M5651 10586 c-9 -10 -11 -164 -11 -582 l2 -567 -36 -33 c-36 -33 -36
-33 -36 -119 l0 -85 873 2 872 3 3 78 3 78 -37 32 c-73 62 -75 66 -64 87 6 12
10 208 10 554 0 473 -2 536 -16 550 -14 14 -99 16 -783 16 -646 0 -770 -2
-780 -14z m1460 -136 c18 -10 19 -25 19 -408 0 -296 -3 -401 -12 -410 -9 -9
-175 -12 -684 -12 -370 0 -679 3 -688 6 -14 5 -16 51 -16 414 0 381 1 409 18
413 38 10 1344 7 1363 -3z m-631 -895 c0 -32 -45 -49 -56 -20 -10 24 14 47 37
34 10 -5 19 -11 19 -14z"/>
<path d="M6330 7759 c-55 -25 -105 -71 -133 -124 -21 -39 -22 -52 -25 -436
l-3 -397 -22 -6 c-12 -3 -80 -6 -151 -6 l-129 0 7 -77 c23 -257 193 -457 441
-521 l70 -18 0 -69 0 -70 -208 -5 -209 -5 -24 -28 c-41 -48 -27 -172 21 -191
9 -3 214 -6 456 -6 533 0 509 -6 509 120 0 42 -5 64 -19 81 -19 23 -24 24
-218 29 l-198 5 0 69 0 70 71 17 c112 28 189 72 275 158 111 111 169 244 169
388 l0 62 -152 3 -153 3 -5 390 c-6 430 -5 424 -71 500 -71 80 -201 108 -299
64z m-173 -1087 c7 -5 20 -32 29 -61 20 -69 88 -143 152 -168 102 -39 231 -9
297 69 33 39 64 104 65 135 0 28 24 35 110 31 l65 -3 -2 -33 c-2 -52 -57 -154
-115 -211 -31 -31 -81 -66 -126 -89 -68 -33 -84 -37 -171 -40 -78 -3 -107 0
-155 17 -142 50 -251 160 -291 296 -13 40 -12 46 3 54 20 12 122 14 139 3z"/>
<path d="M9167 7559 c-128 -29 -266 -169 -342 -349 -33 -79 -68 -211 -58 -221
19 -18 239 -61 381 -74 l72 -7 0 57 c0 41 -5 64 -19 82 -11 13 -25 49 -32 79
-14 64 0 147 32 187 16 22 19 41 19 135 0 61 -3 113 -7 115 -5 2 -25 0 -46 -4z"/>
<path d="M9276 7563 c-3 -4 -6 -53 -6 -111 0 -96 2 -106 24 -133 14 -16 30
-54 36 -84 14 -69 -1 -153 -36 -194 -30 -36 -35 -118 -7 -128 45 -17 416 44
443 73 15 17 -30 169 -80 272 -63 129 -152 227 -244 271 -63 30 -119 45 -130
34z"/>
<path d="M11520 7418 c0 -57 -4 -108 -8 -113 -4 -6 -25 -15 -46 -20 -28 -7
-44 -19 -56 -40 -16 -29 -19 -30 -110 -35 -60 -3 -95 -9 -97 -17 -6 -16 25
-22 122 -25 l80 -3 3 -51 c2 -34 -2 -55 -11 -62 -7 -6 -53 -12 -103 -14 -71
-2 -89 -6 -89 -18 0 -12 20 -16 100 -20 l100 -5 0 -55 0 -55 -100 -5 c-80 -4
-100 -8 -100 -20 0 -12 20 -16 100 -20 l100 -5 3 -45 c5 -61 -11 -70 -114 -70
-76 0 -107 -10 -89 -28 4 -4 50 -9 103 -12 l97 -5 3 -51 c2 -34 -2 -55 -11
-62 -7 -6 -53 -12 -103 -14 -71 -2 -89 -6 -89 -18 0 -12 20 -16 100 -20 l100
-5 0 -50 0 -50 -100 -5 c-80 -4 -100 -8 -100 -20 0 -12 20 -16 97 -20 53 -3
98 -7 100 -10 2 -3 8 -14 14 -25 7 -12 24 -21 45 -23 55 -6 59 -14 59 -128 0
-95 9 -129 28 -109 4 4 9 57 12 118 l5 112 29 3 c15 2 39 1 52 -2 23 -6 23
-10 26 -119 2 -92 6 -112 18 -112 12 0 16 20 18 104 1 59 8 111 14 118 7 9 28
13 62 11 l51 -3 5 -112 c3 -61 8 -114 12 -118 19 -20 28 14 28 109 0 114 6
126 59 126 57 0 60 -6 63 -125 2 -90 6 -110 18 -110 12 0 16 20 18 110 3 119
6 125 62 125 56 0 59 -6 62 -125 2 -90 6 -110 18 -110 12 0 16 20 18 104 1 58
8 111 14 118 6 7 28 13 48 13 69 0 70 -1 70 -114 0 -101 8 -135 29 -122 7 5
11 45 11 110 0 66 4 106 12 114 7 7 29 12 50 12 31 0 40 5 53 30 l15 29 113 3
c92 2 112 6 112 18 0 12 -22 16 -115 20 l-115 5 0 50 0 50 104 3 c99 3 138 13
125 33 -3 5 -50 9 -104 9 -54 0 -105 3 -114 6 -12 5 -16 20 -16 64 0 44 4 59
16 64 9 3 60 6 114 6 54 0 101 4 104 9 13 20 -26 30 -125 33 l-104 3 0 50 0
50 104 3 c99 3 138 13 125 33 -3 5 -50 9 -104 9 -54 0 -105 3 -114 6 -12 5
-16 20 -16 60 l0 54 103 0 c72 0 109 4 122 14 18 13 18 14 -3 25 -11 6 -66 11
-121 11 l-101 0 0 59 c0 44 4 60 16 65 9 3 60 6 114 6 62 0 101 4 106 11 13
21 -21 29 -123 29 l-102 0 -15 29 c-15 28 -40 41 -82 41 -30 0 -34 16 -34 132
0 89 -2 99 -17 96 -16 -3 -18 -18 -21 -116 l-3 -113 -62 3 -62 3 -5 110 c-4
89 -8 110 -20 110 -12 0 -16 -20 -18 -113 l-3 -113 -57 3 -57 3 -5 110 c-4 89
-8 110 -20 110 -12 0 -16 -21 -20 -110 l-5 -110 -49 -3 c-32 -2 -52 1 -57 10
-5 7 -9 59 -9 116 0 93 -2 103 -17 100 -16 -3 -18 -18 -21 -116 l-3 -113 -62
3 -62 3 -5 110 c-4 89 -8 110 -20 110 -12 0 -16 -21 -20 -110 l-5 -110 -52 -3
-52 -3 -3 113 c-3 98 -5 113 -20 116 -16 3 -18 -7 -18 -100z m770 -318 c19
-19 20 -33 20 -314 0 -317 0 -318 -53 -331 -12 -3 -155 -5 -318 -3 -233 2
-299 6 -312 17 -15 12 -17 47 -17 317 0 302 0 303 22 318 19 14 68 16 330 16
295 0 309 -1 328 -20z"/>
<path d="M11712 7024 c-22 -15 -22 -19 -22 -243 0 -163 3 -230 12 -239 9 -9
78 -12 249 -12 203 0 240 2 253 16 14 13 16 49 16 239 0 220 0 224 -22 239
-19 13 -60 16 -243 16 -183 0 -224 -3 -243 -16z"/>
<path d="M3668 7313 l-3 -78 -102 -3 -103 -3 0 51 0 50 -100 0 -100 0 0 -37
c0 -21 -4 -43 -8 -49 -4 -6 -35 -14 -70 -17 -110 -9 -102 33 -102 -517 l0
-477 23 -21 23 -22 720 0 721 0 21 23 c22 23 22 24 22 494 0 448 -1 472 -19
494 -19 24 -22 24 -235 27 l-215 3 -3 77 -3 77 -232 3 -232 2 -3 -77z m-93
-148 c30 -30 32 -64 4 -99 -20 -25 -25 -26 -116 -26 -113 0 -133 11 -133 72 0
64 23 78 130 78 83 0 93 -2 115 -25z m450 -231 c72 -25 166 -120 194 -197 61
-166 -14 -353 -173 -428 -80 -38 -147 -45 -227 -25 -101 26 -177 87 -227 181
-24 45 -27 61 -27 150 0 90 3 105 28 153 47 89 134 158 231 183 44 11 142 3
201 -17z"/>
<path d="M3808 6855 c-59 -22 -102 -60 -134 -117 -24 -45 -29 -64 -29 -123 1
-82 23 -134 81 -185 52 -45 99 -63 169 -63 186 -1 309 197 226 362 -26 50 -70
93 -118 116 -49 24 -147 29 -195 10z"/>
<path d="M130 7301 c-6 -13 -10 -193 -10 -515 0 -436 2 -496 16 -510 14 -14
97 -16 763 -16 568 0 750 3 759 12 17 17 17 1019 0 1036 -9 9 -193 12 -765 12
-734 0 -753 0 -763 -19z m1425 -486 l0 -380 -660 0 -660 0 -3 370 c-1 203 0
376 3 383 3 10 140 12 662 10 l658 -3 0 -380z m-625 -425 c38 -38 16 -100 -35
-100 -50 0 -70 84 -26 110 24 14 39 12 61 -10z"/>
<path d="M9220 7251 c-18 -34 -12 -116 10 -142 l20 -24 20 24 c14 16 20 38 20
73 0 58 -13 88 -40 88 -11 0 -24 -9 -30 -19z"/>
<path d="M8747 6858 c-8 -85 8 -256 33 -353 44 -177 161 -359 278 -433 211
-135 455 -30 592 253 73 149 91 228 97 428 6 187 11 177 -70 152 -242 -73
-541 -79 -795 -15 -64 17 -120 30 -123 30 -3 0 -9 -28 -12 -62z"/>
<path d="M3768 4569 c-269 -34 -478 -267 -478 -532 0 -121 28 -206 109 -335
43 -69 76 -175 93 -306 10 -74 9 -88 -6 -121 -28 -58 -16 -101 40 -153 44 -40
46 -44 34 -71 -14 -35 -4 -60 40 -91 27 -19 30 -26 24 -56 -5 -29 -2 -38 28
-68 89 -89 337 -89 426 0 29 29 33 39 28 66 -5 27 -1 35 34 65 44 38 49 56 23
92 -16 23 -15 25 13 49 70 60 82 120 38 186 -23 34 -25 44 -19 94 17 141 52
249 112 344 59 93 84 170 90 268 21 340 -280 612 -629 569z m225 -149 c261
-98 358 -399 201 -627 -49 -71 -82 -158 -106 -272 -10 -52 -21 -98 -24 -103
-7 -11 -431 -10 -438 0 -3 5 -15 53 -27 108 -26 120 -53 189 -108 274 -56 86
-74 151 -69 253 3 67 9 95 35 149 94 199 330 295 536 218z m26 -1181 c17 -6
30 -16 28 -23 -9 -28 -191 -44 -301 -26 -99 16 -102 42 -6 59 66 12 234 6 279
-10z"/>
<path d="M11947 4362 c-10 -10 -17 -28 -17 -40 0 -28 -13 -35 -92 -48 -105
-18 -189 -63 -267 -141 -73 -73 -111 -140 -139 -244 l-17 -64 -135 -5 -135 -5
-3 -62 -3 -62 137 -3 136 -3 27 -80 c32 -101 76 -169 151 -239 73 -67 142
-101 250 -124 83 -17 84 -18 91 -51 4 -18 13 -37 21 -42 7 -5 81 -9 164 -9
185 0 184 0 184 112 l0 76 229 4 c285 4 271 -4 271 143 0 143 15 135 -252 135
-119 0 -223 3 -232 6 -13 5 -16 27 -16 134 0 107 3 129 16 134 9 3 114 6 233
6 266 0 251 -8 251 137 0 144 14 137 -269 143 l-226 5 -3 85 c-3 120 -4 120
-192 120 -130 0 -149 -2 -163 -18z m-22 -254 c3 -13 4 -178 3 -368 l-3 -345
-50 1 c-104 3 -213 85 -268 202 -29 61 -32 76 -32 162 0 82 4 103 27 152 47
101 135 179 228 204 69 19 89 17 95 -8z m686 -27 c48 -39 18 -131 -43 -131
-27 0 -68 45 -68 75 0 30 41 75 68 75 11 0 30 -8 43 -19z m-18 -540 c51 -20
56 -105 8 -130 -30 -16 -52 -13 -78 11 -31 29 -30 72 2 103 27 28 33 29 68 16z"/>
<path d="M443 4363 c-10 -3 -13 -44 -13 -157 0 -106 -4 -157 -12 -169 -11 -13
-38 -16 -165 -19 -171 -3 -188 -9 -230 -84 -22 -38 -23 -47 -23 -340 0 -333 0
-336 66 -393 l35 -31 140 0 c78 0 149 -5 160 -10 16 -9 19 -22 19 -91 0 -76 1
-80 26 -89 34 -13 854 -13 888 0 25 9 26 13 26 89 0 69 3 82 19 91 11 5 83 10
163 10 124 0 147 3 175 20 62 37 63 44 63 409 l0 329 -26 31 c-43 52 -58 56
-224 61 l-155 5 -3 159 c-1 97 -7 165 -13 173 -9 10 -99 13 -458 12 -245 0
-452 -3 -458 -6z m1175 -501 c9 -7 12 -68 10 -273 l-3 -264 -84 -3 c-83 -3
-83 -3 -116 31 -18 19 -48 37 -65 41 -18 3 -230 6 -472 6 -473 0 -478 0 -527
-54 -23 -24 -31 -26 -107 -26 -65 0 -83 3 -88 16 -3 9 -6 127 -6 263 0 179 3
250 12 259 9 9 183 12 723 12 390 0 716 -4 723 -8z"/>
<path d="M261 3716 c-21 -25 -9 -69 20 -80 61 -21 115 23 84 70 -12 18 -24 24
-54 24 -21 0 -44 -6 -50 -14z"/>
<path d="M466 3714 c-35 -34 -5 -84 51 -84 32 0 63 26 63 53 0 26 -29 47 -65
47 -18 0 -41 -7 -49 -16z"/>
<path d="M675 3706 c-31 -47 23 -91 84 -70 18 7 27 18 29 37 5 39 -14 57 -59
57 -30 0 -42 -6 -54 -24z"/>
<path d="M5958 4335 c-173 -43 -316 -175 -357 -330 -18 -69 -73 -685 -69 -770
8 -151 84 -235 212 -235 124 0 199 53 406 284 l95 106 197 0 197 0 131 -145
c184 -202 233 -235 355 -242 89 -6 146 21 188 89 52 83 53 130 14 533 -39 400
-46 431 -121 532 -50 69 -127 124 -222 161 l-69 27 -450 2 c-359 1 -462 -1
-507 -12z m1024 -127 c98 -46 171 -127 200 -223 13 -42 68 -614 68 -708 0
-122 -34 -177 -110 -177 -40 0 -110 30 -150 63 -15 13 -91 94 -170 180 l-143
157 -232 0 -233 0 -60 -62 c-32 -35 -103 -112 -157 -171 -105 -115 -155 -152
-222 -163 -84 -13 -131 32 -140 134 -6 72 52 680 72 747 30 106 117 195 227
235 50 18 82 19 523 17 l470 -2 57 -27z"/>
<path d="M5965 4051 c-98 -44 -147 -120 -147 -226 0 -50 5 -73 28 -116 134
-246 511 -107 454 168 -31 146 -201 235 -335 174z m157 -103 l3 -63 55 -5 55
-5 0 -55 0 -55 -55 -5 -55 -5 -5 -55 c-5 -52 -7 -55 -34 -58 -61 -7 -75 3 -78
61 l-3 52 -60 5 -60 5 -3 51 c-3 58 4 64 86 64 l42 0 0 58 c0 32 3 62 7 65 3
4 28 7 54 7 l48 0 3 -62z"/>
<path d="M6770 4020 c-41 -41 -10 -110 48 -110 36 0 62 28 62 67 0 57 -69 84
-110 43z"/>
<path d="M6622 3874 c-15 -10 -22 -25 -22 -48 0 -40 17 -63 52 -71 21 -5 33
-1 52 19 33 32 33 60 1 91 -28 29 -51 31 -83 9z"/>
<path d="M6949 3872 c-26 -22 -31 -75 -8 -97 29 -28 66 -29 93 -1 33 32 33 60
1 91 -29 30 -55 32 -86 7z"/>
<path d="M6780 3730 c-29 -29 -26 -74 6 -99 15 -12 32 -21 39 -21 7 0 24 9 39
21 48 38 22 119 -39 119 -14 0 -34 -9 -45 -20z"/>
<path d="M8975 4168 c-343 -246 -288 -218 -426 -218 l-119 0 2 -272 3 -273
120 -5 120 -5 253 -184 c139 -101 255 -181 258 -179 2 3 3 293 2 646 l-3 641
-210 -151z"/>
<path d="M9759 4173 c70 -70 96 -105 129 -173 143 -289 63 -623 -196 -821 -64
-49 -65 -51 -32 -45 99 18 230 115 305 226 124 183 139 420 37 622 -48 97
-154 203 -244 247 -36 17 -70 31 -76 31 -6 0 29 -39 77 -87z"/>
<path d="M9408 4056 c85 -93 126 -212 126 -366 -1 -159 -49 -302 -138 -409
-20 -24 -35 -46 -32 -48 11 -11 112 55 153 101 170 189 173 498 8 675 -44 47
-114 91 -144 91 -8 0 5 -20 27 -44z"/>
<path d="M725 1520 c-93 -16 -165 -43 -203 -75 -33 -30 -36 -35 -27 -61 24
-67 191 -116 400 -116 236 0 405 56 405 133 0 37 -54 74 -148 101 -76 23 -339
34 -427 18z"/>
<path d="M11522 1504 l-22 -15 0 -723 c0 -675 1 -725 18 -745 17 -21 19 -21
452 -19 l434 3 13 25 c10 19 13 183 13 738 0 699 0 712 -20 732 -19 19 -33 20
-443 20 -366 0 -426 -2 -445 -16z m800 -191 c15 -13 18 -32 18 -104 0 -79 -2
-89 -22 -103 -19 -14 -71 -16 -364 -16 -330 0 -341 1 -359 20 -20 22 -32 119
-21 164 14 57 7 56 383 56 308 0 348 -2 365 -17z m6 -285 c8 -8 12 -46 12
-103 0 -57 -4 -95 -12 -103 -9 -9 -105 -12 -369 -12 -319 0 -358 2 -370 17 -9
11 -14 43 -14 98 0 55 5 87 14 98 12 15 51 17 370 17 264 0 360 -3 369 -12z
m-20 -334 c16 -5 22 -13 20 -28 -3 -21 -5 -21 -364 -24 -336 -2 -362 -1 -368
15 -16 40 12 43 358 43 182 0 341 -3 354 -6z m17 -104 l0 -25 -356 -3 c-308
-2 -358 0 -369 13 -10 12 -10 18 0 30 11 13 61 15 369 13 l356 -3 0 -25z m5
-55 c10 -12 10 -18 0 -30 -11 -13 -63 -15 -355 -15 -189 0 -350 3 -359 6 -16
6 -22 35 -9 47 3 4 165 7 358 7 301 0 354 -2 365 -15z m-303 -125 c106 -48
120 -195 25 -268 -46 -35 -135 -39 -178 -6 -52 38 -69 71 -69 132 0 70 28 115
89 143 52 24 80 23 133 -1z"/>
<path d="M11920 359 c-38 -15 -60 -49 -60 -95 0 -105 141 -136 186 -40 38 80
-44 168 -126 135z"/>
<path d="M3655 1391 c-214 -58 -391 -197 -503 -393 -44 -77 -90 -221 -101
-318 -6 -58 -14 -86 -25 -92 -39 -22 -46 -60 -46 -247 l0 -181 28 -31 c24 -27
37 -33 84 -37 31 -2 72 1 92 8 60 19 66 43 66 254 l0 185 -31 36 c-30 34 -31
38 -24 93 28 224 173 436 366 531 190 94 378 94 568 0 194 -96 341 -310 367
-537 6 -59 5 -63 -25 -97 l-31 -36 0 -189 c0 -188 0 -189 26 -219 25 -30 29
-31 104 -31 69 0 82 3 107 24 l28 24 0 200 0 201 -29 29 c-24 26 -29 42 -37
113 -36 319 -254 593 -554 695 -69 24 -99 28 -220 31 -114 2 -153 -1 -210 -16z"/>
<path d="M9045 1365 c-235 -33 -451 -108 -541 -187 -46 -40 -64 -82 -64 -148
0 -51 33 -134 62 -157 25 -20 335 45 377 80 10 9 12 29 7 85 l-6 73 55 25
c152 70 410 83 588 30 49 -15 102 -33 119 -42 l30 -16 -7 -73 -7 -73 58 -22
c75 -27 162 -47 246 -56 l67 -7 12 29 c6 16 14 64 17 106 6 94 -16 147 -85
208 -128 112 -619 189 -928 145z"/>
<path d="M440 1197 c0 -134 4 -143 89 -181 101 -45 189 -59 366 -60 175 0 277
16 371 60 84 39 88 49 92 180 2 63 1 114 -3 114 -4 0 -20 -9 -36 -21 -85 -60
-267 -93 -469 -86 -165 6 -272 29 -357 77 l-53 30 0 -113z"/>
<path d="M6060 750 c0 -242 3 -440 6 -440 12 0 709 363 727 379 43 37 41 81
-6 111 -55 34 -709 390 -717 390 -6 0 -10 -163 -10 -440z"/>
<path d="M8970 1040 c-17 -17 -20 -33 -20 -104 l0 -84 -88 -89 c-48 -48 -100
-111 -115 -140 -58 -109 -81 -269 -54 -373 10 -38 16 -46 42 -50 20 -3 34 -14
43 -33 28 -59 89 -60 124 -2 l20 35 341 -2 342 -3 13 -27 c28 -58 89 -61 122
-5 16 26 28 33 62 37 52 6 59 25 60 160 0 112 -22 192 -79 288 -34 58 -106
136 -159 172 -18 13 -22 28 -26 109 -5 83 -8 97 -28 113 -30 24 -85 23 -110
-2 -14 -14 -20 -33 -20 -63 0 -59 -9 -66 -78 -55 -48 8 -123 6 -227 -5 -16 -2
-20 7 -27 53 -5 37 -15 61 -29 73 -29 23 -84 22 -109 -3z m393 -274 c123 -44
193 -182 157 -311 -15 -55 -77 -128 -134 -158 -56 -30 -164 -30 -221 0 -91 48
-139 127 -140 228 0 83 20 131 78 186 64 63 173 86 260 55z"/>
<path d="M9190 658 c-57 -39 -75 -72 -75 -137 0 -48 5 -64 29 -95 88 -116 267
-71 291 75 9 51 -26 125 -74 156 -47 31 -126 32 -171 1z"/>
<path d="M440 781 l0 -119 30 -25 c71 -60 229 -96 421 -97 213 0 381 41 439
107 29 33 30 37 30 138 0 58 -4 105 -8 105 -5 0 -34 -14 -65 -31 -85 -46 -214
-69 -382 -70 -195 -1 -345 29 -430 86 l-35 24 0 -118z"/>
<path d="M2888 473 c-34 -36 -48 -73 -48 -129 0 -66 46 -144 84 -144 3 0 6 68
6 150 0 83 -4 150 -8 150 -5 0 -20 -12 -34 -27z"/>
<path d="M440 357 c0 -111 1 -114 28 -139 36 -35 104 -63 199 -84 106 -22 349
-22 458 0 98 21 205 72 222 106 14 27 18 234 6 228 -5 -1 -37 -17 -73 -35
-168 -83 -486 -95 -701 -27 -42 13 -88 33 -102 44 -14 11 -28 20 -31 20 -3 0
-6 -51 -6 -113z"/>
<path d="M4760 319 l0 -151 23 14 c58 39 83 140 53 212 -15 37 -50 76 -66 76
-6 0 -10 -57 -10 -151z"/>
</g>
</svg>
